<svg width="640" height="2653" viewBox="0 0 640 2653" fill="none" xmlns="http://www.w3.org/2000/svg">
<path d="M635.231 71.7586L714.225 0H1036V959H379C409.282 912.654 428.205 859.819 434.231 804.786L437 779.5L444.397 628.537C446.752 580.477 462.536 534.04 489.957 494.5L548 417L550.001 413.627C576.339 369.219 584.765 316.444 573.565 266.043C557.757 194.907 581.293 120.757 635.231 71.7586Z" fill="#89947B"/>
<path d="M416 3056L658.758 3075.5L1036.49 1712V753H378.582L355.013 788.5L270.549 908.319C229.853 966.05 -95.2658 943.845 -80.5128 1024.5C-70.0269 1081.83 -47.7922 1188.21 -54.5132 1259.48C-57.7222 1293.51 -68.0134 1327.52 -68.0134 1361.7C-68.0134 1414.26 -89.5497 1464.52 -127.603 1500.77L-161.3 1532.87C-190.145 1560.35 -210.101 1593.98 -210.879 1633.81C-216.148 1903.61 -122.218 2954.82 -25.4086 2992.5C40.6843 3018.22 151.104 3025.31 186.631 3029.43L416 3056Z" fill="#89947B"/>
</svg>
