<svg width="320" height="344" viewBox="0 0 320 344" fill="none" xmlns="http://www.w3.org/2000/svg">
<rect width="320" height="323" fill="#89947B"/>
<path d="M320.001 322.83L299.953 343.66L279.905 322.83L299.953 302L320.001 322.83Z" fill="#89947B"/>
<path d="M160.001 322.83L139.953 343.66L119.905 322.83L139.953 302L160.001 322.83Z" fill="#89947B"/>
<path d="M239.809 322.83L219.953 343.66L200.098 322.83L219.953 302L239.809 322.83Z" fill="#89947B"/>
<path d="M79.8086 322.83L59.9532 343.66L40.0978 322.83L59.9532 302L79.8086 322.83Z" fill="#89947B"/>
<path d="M279.905 322.83L259.857 343.66L239.809 322.83L259.857 302L279.905 322.83Z" fill="#89947B"/>
<path d="M119.905 322.83L99.8571 343.66L79.8089 322.83L99.8571 302L119.905 322.83Z" fill="#89947B"/>
<path d="M200.097 322.83L180.048 343.66L160 322.83L180.048 302L200.097 322.83Z" fill="#89947B"/>
<path d="M40.0967 322.83L20.0485 343.66L0.000311895 322.83L20.0485 302L40.0967 322.83Z" fill="#89947B"/>
</svg>
