<svg width="320" height="395" viewBox="0 0 320 395" fill="none" xmlns="http://www.w3.org/2000/svg">
<rect width="320" height="374" fill="#89947B"/>
<path d="M320 373.83L299.952 394.66L279.904 373.83L299.952 353L320 373.83Z" fill="#89947B"/>
<path d="M160 373.83L139.952 394.66L119.904 373.83L139.952 353L160 373.83Z" fill="#89947B"/>
<path d="M239.808 373.83L219.952 394.66L200.097 373.83L219.952 353L239.808 373.83Z" fill="#89947B"/>
<path d="M79.8076 373.83L59.9522 394.66L40.0968 373.83L59.9522 353L79.8076 373.83Z" fill="#89947B"/>
<path d="M279.904 373.83L259.856 394.66L239.808 373.83L259.856 353L279.904 373.83Z" fill="#89947B"/>
<path d="M119.904 373.83L99.8561 394.66L79.8079 373.83L99.8561 353L119.904 373.83Z" fill="#89947B"/>
<path d="M200.096 373.83L180.048 394.66L159.999 373.83L180.048 353L200.096 373.83Z" fill="#89947B"/>
<path d="M40.0957 373.83L20.0475 394.66L-0.000664668 373.83L20.0475 353L40.0957 373.83Z" fill="#89947B"/>
</svg>
