<svg width="321" height="345" viewBox="0 0 321 345" fill="none" xmlns="http://www.w3.org/2000/svg">
<rect x="0.973785" y="21.3792" width="320" height="302.189" fill="#89947B"/>
<path d="M320.975 323.399L300.927 344.229L280.878 323.399L300.927 302.568L320.975 323.399Z" fill="#89947B"/>
<path d="M160.975 323.399L140.927 344.229L120.878 323.399L140.927 302.568L160.975 323.399Z" fill="#89947B"/>
<path d="M240.782 323.399L220.927 344.229L201.072 323.399L220.927 302.568L240.782 323.399Z" fill="#89947B"/>
<path d="M80.7824 323.399L60.927 344.229L41.0716 323.399L60.927 302.568L80.7824 323.399Z" fill="#89947B"/>
<path d="M280.879 323.399L260.831 344.229L240.783 323.399L260.831 302.568L280.879 323.399Z" fill="#89947B"/>
<path d="M120.879 323.399L100.831 344.229L80.7827 323.399L100.831 302.568L120.879 323.399Z" fill="#89947B"/>
<path d="M201.07 323.399L181.022 344.229L160.974 323.399L181.022 302.568L201.07 323.399Z" fill="#89947B"/>
<path d="M41.0705 323.399L21.0223 344.229L0.974097 323.399L21.0223 302.568L41.0705 323.399Z" fill="#89947B"/>
<path d="M320.974 21.059L300.926 41.8893L280.877 21.059L300.926 0.228789L320.974 21.059Z" fill="#89947B"/>
<path d="M160.974 21.059L140.926 41.8893L120.877 21.059L140.926 0.228789L160.974 21.059Z" fill="#89947B"/>
<path d="M240.781 21.059L220.926 41.8893L201.071 21.059L220.926 0.228789L240.781 21.059Z" fill="#89947B"/>
<path d="M80.7815 21.059L60.926 41.8893L41.0706 21.059L60.9261 0.228789L80.7815 21.059Z" fill="#89947B"/>
<path d="M280.878 21.059L260.83 41.8893L240.782 21.059L260.83 0.228789L280.878 21.059Z" fill="#89947B"/>
<path d="M120.878 21.059L100.83 41.8893L80.7817 21.059L100.83 0.228789L120.878 21.059Z" fill="#89947B"/>
<path d="M201.069 21.059L181.021 41.8893L160.973 21.059L181.021 0.228789L201.069 21.059Z" fill="#89947B"/>
<path d="M41.0695 21.059L21.0213 41.8893L0.973121 21.059L21.0213 0.228789L41.0695 21.059Z" fill="#89947B"/>
</svg>
