<svg width="127" height="127" viewBox="0 0 127 127" fill="none" xmlns="http://www.w3.org/2000/svg">
<circle cx="63.5" cy="63.5" r="62.5" fill="#89947B" stroke="#89947B" stroke-width="2"/>
<path d="M32.9102 68.8967C31.439 64.2357 32.2879 63.2368 32.9102 59.1756C33.1738 57.4555 33.4533 56.7054 34.0935 56.0005C34.5545 55.4929 34.6037 52.7053 35.5337 51.6043C37.1769 49.6594 38.3133 48.8497 38.8694 49.2271C39.019 49.3287 39.0741 49.5106 38.9919 49.6316C38.91 49.7523 39.0728 49.9216 39.3539 50.0076C39.95 50.1897 39.6709 50.7827 38.962 50.8409C38.0966 50.9119 37.7504 52.2421 38.3669 53.1287C38.6819 53.5819 38.8966 54.0269 38.8444 54.1184C38.792 54.2095 38.0722 55.3912 37.2445 56.7439C34.8149 60.7148 34.5768 62.4054 35.559 68.7002C36.0273 71.7014 39.0382 78.2987 40.586 79.7151C42.6976 81.6473 44.4362 82.9723 45.7387 83.642C46.5774 84.0734 48.1101 84.9205 49.1447 85.5247C51.3067 86.7873 56.1656 88.4991 58.1481 88.6968C60.2174 88.903 62.6312 88.763 62.8615 88.4237C63.041 88.1593 64.0297 87.9102 66.4861 87.5104C66.8261 87.4551 67.635 87.109 68.284 86.7416C68.9329 86.3742 69.7345 86.0335 70.0655 85.9847C70.3966 85.9359 71.1542 85.6296 71.7492 85.3041C72.9616 84.6402 76.3737 83.6361 76.6889 83.85C76.9425 84.0221 76.8356 84.8112 76.4905 85.3172C76.3489 85.5252 75.7261 85.6438 75.1068 85.5808C74.297 85.4983 73.544 85.7572 72.425 86.5025C71.5691 87.0722 70.7643 87.6929 70.6364 87.8813C70.5084 88.0699 70.1736 88.1539 69.8925 88.0679C69.6113 87.9821 69.2514 88.1031 69.0926 88.3371C68.9131 88.6015 68.5008 88.6354 68.003 88.4267C67.242 88.1081 66.4598 88.51 67.055 88.9141C67.2099 89.0192 67.2327 89.2585 67.1056 89.4457C66.9785 89.6329 66.7478 89.7001 66.5928 89.5949C66.4379 89.4898 66.2121 89.5497 66.091 89.728C65.97 89.9062 65.5533 90.0782 65.1655 90.11C64.7772 90.1418 64.4904 90.268 64.5279 90.3903C64.5653 90.5128 65.9407 90.4695 67.5844 90.2946C69.228 90.1192 70.7022 90.0637 70.8606 90.1711C71.0186 90.2784 71.4945 90.3544 71.9181 90.3403C72.3416 90.3261 72.614 90.4238 72.5231 90.5577C72.4324 90.6913 72.1688 90.7389 71.9371 90.6632C71.7059 90.5874 71.546 90.6404 71.5821 90.7806C71.6802 91.1599 74.5184 91.8799 74.5933 91.5445C74.7098 91.0219 73.6372 89.5346 73.2295 89.6533C73.025 89.7128 72.5329 89.6261 72.1356 89.4602L71.4136 89.1588L72.4384 88.8966C73.0017 88.7522 73.7765 88.6578 74.1602 88.6872C74.5437 88.7164 75.7016 88.4909 76.7333 88.1863C78.3942 87.6962 78.8089 87.4068 80.355 85.6595C81.315 84.5743 82.5618 83.4825 83.1253 83.2337C83.7821 82.9432 84.5102 82.2526 85.1542 81.308C87.2487 78.2375 89.8996 73.3592 90.2214 71.9837C90.6756 70.0429 91.0732 67.3505 90.9902 66.7787C90.8715 65.9588 90.5475 66.3051 90.5224 67.2787C90.5091 67.7941 90.3141 68.6829 90.0891 69.2532C89.8641 69.8235 89.7161 70.4883 89.7602 70.7307C89.8042 70.9731 89.5361 71.7227 89.1646 72.3962C88.7928 73.0694 88.4338 73.865 88.3665 74.1641C88.2686 74.6006 88.0631 74.6136 87.3224 74.2292L86.4003 73.7509L87.7984 71.6906C89.1762 69.6603 89.733 67.8402 90.5348 62.7478C90.9397 60.1751 89.757 54.5692 88.407 52.6625C87.8767 51.9137 87.3154 50.9432 87.1596 50.5059C87.0037 50.0686 86.3349 48.9748 85.6734 48.0749C85.0118 47.1752 84.4605 46.2663 84.4482 46.0553C84.436 45.8441 84.2358 45.5425 84.0034 45.3848C83.771 45.227 83.5899 45.2532 83.6009 45.4431C83.6282 45.9115 82.6088 45.1927 82.4341 44.6202C82.3333 44.2899 82.089 44.1241 81.5513 44.0209C81.1423 43.9426 80.0023 43.3319 79.0178 42.6636C77.8037 41.8395 76.7877 41.3564 75.8601 41.162C75.108 41.0042 74.3639 40.7146 74.2068 40.5181C74.0479 40.3194 73.7131 40.3227 73.4528 40.5249C73.1496 40.7607 72.751 40.7321 72.3223 40.444C71.5427 39.9205 67.9344 39.9411 68.2306 40.4674C68.5651 41.0621 68.0551 41.4487 66.6662 41.653C65.9353 41.7606 64.5879 42.2046 63.6718 42.6393C62.0287 43.419 61.9799 43.474 60.0675 46.6847C58.0851 50.0132 57.3705 52.1334 57.346 54.7604C57.3398 55.4146 57.2578 56.0634 57.1636 56.2021C57.0694 56.341 57.0937 56.8816 57.2174 57.4039C57.3413 57.9263 57.5333 58.8911 57.6439 59.5477C57.7547 60.2047 58.0999 60.9612 58.4109 61.2286C58.7218 61.4963 58.8746 61.8653 58.7503 62.0485C58.4864 62.4372 59.9315 64.1243 61.4343 65.1815C61.9996 65.5792 62.4711 66.06 62.4822 66.2498C62.5181 66.8704 64.105 67.6999 65.516 67.8358C66.2757 67.9089 67.3541 68.1741 67.9118 68.4248C68.4696 68.6754 69.4279 68.8816 70.0409 68.883C70.6539 68.8844 71.2793 68.9179 71.4305 68.9576C71.5818 68.9972 72.3092 68.8899 73.0475 68.7194C74.7992 68.3145 75.3846 67.3964 75.4548 64.9439C75.4854 63.8707 75.527 62.3454 75.5473 61.5542C75.5781 60.3534 75.3657 59.8121 74.2613 58.2777C72.6584 56.0502 70.9433 54.7803 69.7507 54.9375C68.4916 55.1036 66.8127 57.9411 66.8311 59.8727C66.8385 60.6728 66.7301 61.3653 66.5898 61.412C66.1901 61.5444 66.7279 62.5864 67.2314 62.6547C67.5172 62.6932 67.5439 62.7617 67.3041 62.841C66.5445 63.0932 68.5209 64.0734 69.5532 63.9565C70.6143 63.8367 70.6183 63.6999 69.5892 62.6692C69.0437 62.1228 69.0233 61.8408 69.4574 60.8484C70.1584 59.2459 71.4146 58.0717 72.0428 58.4321C72.9943 58.9785 73.8756 59.7766 73.9953 60.2003C74.0785 60.4955 73.9514 60.4468 73.5869 60.0442C73.1573 59.5695 72.9979 59.5479 72.7393 59.929C72.4204 60.3988 72.7046 60.7554 74.0026 61.5142C74.5535 61.8361 74.5718 62.0601 74.1286 63.0731C73.8274 63.7618 73.2359 64.5229 72.713 64.895C72.2193 65.2465 71.6736 65.7423 71.5006 65.9972C71.313 66.2736 70.3768 66.458 69.1784 66.4545C66.7324 66.4475 65.5007 65.7414 64.3756 63.7011C63.3047 61.7591 63.546 59.0594 65.0713 55.9195C66.1683 53.6608 66.3059 53.4939 67.537 52.9265C68.2687 52.5894 69.3779 52.4011 70.0648 52.4978C71.7445 52.7342 74.4039 54.5427 75.4946 56.1905C75.9361 56.8574 76.4986 57.4647 76.7444 57.5397C76.9905 57.6149 77.0551 57.7215 76.8884 57.7768C76.7217 57.832 76.8487 58.4615 77.1706 59.1754C77.5625 60.0451 77.7034 61.324 77.5976 63.0511C77.4372 65.6734 77.9903 68.5236 78.4012 67.1926C78.506 66.8533 78.7008 66.65 78.8341 66.7405C79.2037 66.9914 78.5773 68.3621 76.8687 71.0424C75.1557 73.729 74.8825 74.0041 74.3095 73.6152C73.8295 73.2893 73.5292 73.6427 73.9107 74.0846C74.526 74.7974 70.9569 75.9185 69.9935 75.3149C69.8679 75.2363 69.3442 75.1918 68.8302 75.2162C68.2288 75.245 67.706 75.0671 67.364 74.718C66.9873 74.3333 66.5635 74.2302 65.9083 74.3637C64.9595 74.5571 63.2203 73.7681 62.7488 72.9302C62.6202 72.7013 62.2488 72.5121 61.9236 72.5098C61.5984 72.5076 61.1808 72.3164 60.9958 72.0847C60.8105 71.8532 60.5864 71.7706 60.4975 71.9016C60.3028 72.1885 58.98 70.977 58.1116 69.7158C57.7805 69.2354 57.3708 68.7478 57.2011 68.6323C57.0312 68.517 56.3296 67.6151 55.6419 66.6277C53.6498 63.769 52.6287 58.6918 53.1837 54.4043C53.6176 51.0504 53.7473 50.5028 54.7269 47.8903C55.5786 45.6196 57.8075 42.6318 58.9927 42.1721C59.3378 42.0384 59.65 41.8113 59.6863 41.6675C59.822 41.1317 62.0446 39.5353 63.6202 38.8424C66.825 37.4327 73.2511 37.7686 77.3085 39.558C78.1793 39.9422 79.7982 40.6482 80.9062 41.1268C82.014 41.6056 83.2593 42.2261 83.6734 42.5059C84.9842 43.3907 87.8276 46.3701 88.9543 48.0395C90.5893 50.4616 92.9865 58.7644 93.0266 62.1443C93.0327 62.6501 93.0421 63.6764 93.0475 64.425C93.0532 65.1738 93.182 65.8708 93.3336 65.9737C93.4854 66.0768 93.5262 66.2908 93.4238 66.4494C93.3217 66.6078 93.1435 67.5686 93.028 68.5843C92.5956 72.3882 91.3453 75.5997 88.6831 79.7446C86.9066 82.5097 85.9576 83.741 85.2526 84.194C84.7164 84.5385 83.3259 85.8982 82.1624 87.2153C80.999 88.5328 79.872 89.6336 79.658 89.6614C79.4442 89.6897 79.0211 90.0778 78.7181 90.5242C77.9851 91.6041 76.7338 91.935 76.0992 91.2174C75.6835 90.7472 75.595 90.766 75.4136 91.3636C75.2853 91.7871 74.9977 92.0485 74.6626 92.0462C74.3641 92.0441 73.6749 92.3374 73.1313 92.6981C72.1321 93.3609 70.4831 93.4291 70.1416 92.8217C70.0394 92.6399 69.9286 92.5959 69.8953 92.7238C69.8047 93.073 68.3672 93.4516 68.0218 93.2171C67.8559 93.1045 67.5873 92.6254 67.425 92.1522C67.1167 91.2534 66.2929 91.1001 66.5651 91.992C66.7649 92.6465 66.2298 93.3269 65.7638 93.0106C65.5503 92.8657 64.5853 92.8912 63.6196 93.0675C62.5839 93.2567 61.7389 93.2321 61.5596 93.0076C61.3922 92.7985 60.9753 92.7416 60.6334 92.8815C60.2861 93.0233 59.8742 92.9639 59.7006 92.7469C59.5294 92.5329 59.1337 92.4394 58.8207 92.5386C58.4106 92.6687 58.2647 92.612 58.2969 92.3348C58.3634 91.7623 57.7654 91.4728 57.0189 91.7159C56.6559 91.8342 56.1129 91.7641 55.8124 91.5601C55.5118 91.356 54.7506 91.2123 54.1208 91.2406C52.8096 91.2997 52.6744 91.2411 52.4267 90.5051C52.3164 90.1773 52.1433 90.0273 51.9819 90.1203C51.1419 90.6037 50.6308 90.5183 49.1899 89.6543C48.3364 89.1427 46.8554 88.2686 45.8986 87.7123C44.9415 87.1558 43.471 86.0486 42.6306 85.2523C41.79 84.4556 40.7989 83.5691 40.4279 83.2821C39.3368 82.4374 36.4217 77.8935 35.0295 74.8675C34.6181 73.9733 33.6644 71.2864 32.9102 68.8967Z" fill="#F6F3F1"/>
<path d="M78.6254 83.9925C78.1313 84.7204 78.0879 84.7213 77.5887 84.0152C77.2043 83.4715 77.1923 83.1891 77.5434 82.9381C78.7123 82.1011 79.4326 82.8033 78.6254 83.9925Z" fill="#F6F3F1"/>
<path d="M79.6683 82.6161C79.472 82.3174 79.1219 82.0111 78.8902 81.9354C78.2297 81.7202 78.6869 81.328 80.7013 80.3803C81.9646 79.7861 82.6664 79.6269 82.8745 79.8871C83.3503 80.4823 83.8969 80.1226 83.666 79.3662C83.4934 78.8001 83.4212 78.7428 83.2255 79.016C83.0242 79.2962 82.9926 79.2731 83.0009 78.8517C83.006 78.5817 83.7044 77.4521 84.5528 76.3411C85.6896 74.8524 86.1933 74.3881 86.4693 74.5755C87.442 75.2357 87.1827 77.1042 86.1064 77.1925C85.7983 77.2178 85.6147 77.4834 85.5293 78.0274C85.3633 79.0867 83.9857 80.3228 80.5518 82.4937C80.343 82.6255 80.1392 82.8293 80.0991 82.9466C80.0586 83.0637 79.865 82.915 79.6683 82.6161Z" fill="#F6F3F1"/>
</svg>
