<svg width="127" height="127" viewBox="0 0 127 127" fill="none" xmlns="http://www.w3.org/2000/svg">
<circle cx="63.5" cy="63.5" r="62.5" fill="#89947B" stroke="#89947B" stroke-width="2"/>
<path d="M32.9368 48.9842C33.8799 44.4492 36.237 40.7302 39.1574 38.2099C41.0324 36.5917 43.5236 36.2497 47.4675 37.265C56.2664 39.5309 62.5008 51.4929 63.8146 51.0517C64.0627 51.2291 64.4713 51.0537 64.7681 51.6364C64.8479 51.7931 65.1208 51.84 65.4883 52.018C65.5304 52.0384 65.3956 52.2292 65.2358 52.4301C65.2497 52.4143 65.264 52.398 65.2786 52.3812C65.7017 52.824 65.7167 53.0208 65.0838 52.7188C65.0618 52.7083 65.0413 52.6983 65.0222 52.689C65.0156 52.6967 65.0091 52.7044 65.0026 52.7119C65.1933 52.883 65.4639 53.2095 65.5149 53.6946C65.5701 54.2203 65.5435 54.6899 65.4557 54.739C65.3679 54.7876 64.1956 55.3985 62.8504 56.096C60.9583 50.447 50.1212 39.584 44.3295 39.8408C37.2927 40.1527 31.5476 51.3904 38.4291 63.8784C39.928 66.5985 40.1803 68.4391 40.9767 69.6287C41.4894 70.3949 42.3986 71.8429 42.9971 72.8469C44.2477 74.9449 47.5896 78.7399 49.1895 79.879C50.8595 81.0678 53.4822 84.5727 53.839 84.4089C53.8131 84.5275 55.8223 86.7805 57.3087 87.448C58.7951 88.1151 60.0804 88.7966 60.1649 88.9625C60.2492 89.1281 60.6198 89.4249 60.9882 89.6222C61.3566 89.8195 61.5432 90.0336 61.4024 90.0982C61.2618 90.1627 61.0143 90.0717 60.8521 89.8955C60.6903 89.7196 60.5288 89.6841 60.4935 89.8165C60.4086 90.1363 61.2697 90.8254 61.6139 90.8012C61.6412 90.754 61.6729 90.736 61.7131 90.7596C61.6892 90.785 61.6553 90.7983 61.6139 90.8012C61.4686 91.0519 61.4457 92.125 60.9117 92.1476C59.7456 92.1966 58.3051 91.4392 58.3001 90.7744C58.2986 90.5755 58.2247 90.4848 58.1359 90.5729C57.8937 90.8137 56.4874 90.4143 56.3031 90.0524C56.3969 90.2365 56.3056 90.1273 56.1629 89.8859C55.4869 89.1594 52.6126 86.4465 51.8 86.1492C50.8262 85.7931 50.1161 85.3564 50.0689 85.0845C50.0245 84.831 49.6954 84.5789 49.3374 84.5247C48.9738 84.4694 48.6501 84.2177 48.6042 83.9547C48.559 83.6954 48.2652 83.4239 47.9511 83.3506C47.5395 83.2548 47.4416 83.1365 47.5999 82.9258C47.9268 82.4907 47.5527 81.9591 46.8004 81.7898C46.4346 81.7075 46.004 81.3825 45.8436 81.0675C45.6831 80.7526 45.1009 80.2598 44.5496 79.9723C43.4019 79.3741 43.3141 79.2596 43.4499 78.5359C43.5104 78.2135 43.4333 78.0056 43.2516 78.002C42.306 77.9829 41.9098 77.6611 41.087 76.2444C40.5996 75.4055 40.2568 74.0344 39.7021 73.1079C39.1473 72.1811 38.2046 70.0286 37.8625 68.9634C37.5206 67.8978 36.7923 67.1334 36.6109 66.7159C36.0777 65.4875 34.6783 63.0751 33.9262 59.49C33.3756 56.8656 32.4533 51.3093 32.9368 48.9842Z" fill="#F6F3F1"/>
<path d="M93.5301 67.9066C93.391 67.9705 93.3603 67.5748 93.4619 67.0275C93.5635 66.4801 93.6841 66.015 93.7297 65.9941C93.7755 65.973 93.8062 66.3687 93.7979 66.8732C93.7896 67.3778 93.669 67.8428 93.5301 67.9066Z" fill="#F6F3F1"/>
<path d="M65.4787 89.5212C65.3398 89.5849 65.1583 89.5044 65.0756 89.342C64.9929 89.1797 64.9725 89.0251 65.0305 88.9985C65.0885 88.9719 65.2698 89.0526 65.4336 89.1777C65.5974 89.3028 65.6176 89.4574 65.4787 89.5212Z" fill="#F6F3F1"/>
<path d="M89.4094 57.5695C88.7792 52.9248 86.6862 48.8954 83.9511 45.9807C82.195 44.1093 79.7389 43.4222 75.7446 43.884C66.8333 44.9148 66.2146 51.958 64.9371 51.336C64.6781 51.4781 64.2833 51.2466 63.9483 51.7852C63.8582 51.9301 63.5834 51.9388 63.2055 52.0649C63.1622 52.0793 63.2835 52.2879 63.4289 52.5101C63.4161 52.4924 63.403 52.4742 63.3895 52.4555C62.9383 52.8373 62.9101 53.0311 63.5605 52.8186C63.5831 52.8112 63.6042 52.8042 63.6238 52.7975C63.6299 52.8061 63.6358 52.8147 63.6417 52.8231C63.4403 52.9667 63.1488 53.2541 63.065 53.7298C62.9744 54.2453 62.969 54.7164 63.053 54.7774C63.137 54.8381 64.2622 55.6092 65.5537 56.4906C67.8209 51.1316 72.9457 45.8227 78.6926 46.8842C85.6748 48.1738 90.6284 60.1576 82.9303 71.6288C81.2535 74.1274 80.8773 75.9242 80.0038 76.9973C79.4413 77.6885 78.4379 79.0032 77.774 79.9191C76.3866 81.8332 72.8025 85.1452 71.1328 86.0562C69.3898 87.0071 66.5412 90.1304 66.1973 89.9177C66.193 89.8881 66.1715 89.8654 66.1363 89.8497C66.1574 89.8822 66.1775 89.9055 66.1973 89.9177C66.2149 90.0394 64.9818 90.5128 63.4571 90.9703C61.9324 91.4274 60.6068 91.9268 60.5115 92.0802C60.4163 92.2333 60.0273 92.4771 59.6472 92.6222C59.2671 92.7673 59.0669 92.9544 59.2026 93.0383C59.3381 93.1221 59.5907 93.0659 59.764 92.9132C59.937 92.7606 60.1001 92.7477 60.1263 92.8844C60.1843 93.1892 58.7935 94.7065 58.1876 95.0815C58.08 95.0954 57.9911 95.1158 57.9286 95.1426C57.9647 95.1896 58.0583 95.1615 58.1876 95.0815C58.5329 95.0369 59.0715 95.0586 59.5516 95.1462C60.7088 95.3573 62.194 94.8039 62.2442 94.1429C62.2592 93.9452 62.3389 93.8652 62.4213 93.9653C62.6459 94.2386 64.0728 94.0368 64.2808 93.7022C64.1838 93.8582 64.2583 93.7906 64.3934 93.6086C64.943 93.2366 67.2743 92.1174 68.1083 91.9335C69.1017 91.7146 69.8381 91.3788 69.9036 91.1147C69.9649 90.8686 70.3097 90.6635 70.6697 90.6594C71.0353 90.6549 71.3745 90.4495 71.4381 90.1941C71.5007 89.9423 71.8116 89.713 72.1292 89.6838C72.5454 89.6456 72.6509 89.5416 72.5076 89.3099C72.2119 88.8312 72.6204 88.3543 73.3806 88.2905C73.7503 88.2594 74.2009 87.9959 74.382 87.7047C74.5631 87.4136 75.1761 87.0041 75.7443 86.7948C76.9273 86.3591 77.0224 86.2573 76.9365 85.5182C76.8982 85.1889 76.9891 84.9927 77.1702 85.0144C78.1125 85.127 78.5288 84.8618 79.4441 83.5664C79.9862 82.7992 80.4206 81.4823 81.0357 80.6374C81.6508 79.7922 82.7355 77.7811 83.1483 76.7685C83.5611 75.7556 84.338 75.0961 84.5469 74.7059C85.1611 73.5575 86.7179 71.3512 87.7103 67.8878C88.4367 65.3524 89.7325 59.9508 89.4094 57.5695Z" fill="#F6F3F1"/>
<path d="M47.8191 67.8009C48.3287 68.2485 48.6175 67.9655 48.7629 66.8759C48.8665 66.0998 48.4289 66.1085 47.772 66.8954C47.472 67.2543 47.4853 67.5073 47.8191 67.8009Z" fill="#F6F3F1"/>
<path d="M27.8166 67.9708C27.9508 68.0537 28.0083 67.6643 27.9443 67.1053C27.8804 66.5464 27.792 66.0667 27.7481 66.0396C27.7039 66.0123 27.6464 66.4017 27.6204 66.9051C27.5943 67.4084 27.6827 67.888 27.8166 67.9708Z" fill="#F6F3F1"/>
<path d="M51.0927 89.5363C51.8306 89.9924 51.8694 89.9771 52.018 89.1706C52.1325 88.5497 52.0262 88.297 51.6121 88.2069C50.2328 87.9058 49.887 88.791 51.0927 89.5363Z" fill="#F6F3F1"/>
<path d="M54.2651 93.3861C54.399 93.4689 54.5852 93.414 54.6785 93.2639C54.7718 93.1138 54.8027 92.9629 54.7467 92.9283C54.6908 92.8938 54.5049 92.9488 54.3334 93.0506C54.1618 93.1523 54.1312 93.3034 54.2651 93.3861Z" fill="#F6F3F1"/>
<path d="M57 73.3887C59 75 62.5774 76.6201 64.8247 76.0338C65.7745 75.7861 68.9935 74.6933 68.9935 73.3887" stroke="#F6F3F1" stroke-width="2" stroke-linecap="round"/>
<path d="M56.4236 65.3898C56.4236 63.3334 53.4333 64.5156 54.6037 65.686C55.1341 66.2165 56.3925 65.1905 55.8311 65.03C55.0632 64.8107 55.2483 66.2168 55.6618 65.3898" stroke="#F6F3F1" stroke-width="2" stroke-linecap="round"/>
<path d="M67.4692 63.4852C64.9868 63.4852 67.2758 65.8021 67.8501 64.7972C68.5391 63.5913 67.1298 62.4219 66.3407 64" stroke="#F6F3F1" stroke-width="2" stroke-linecap="round"/>
</svg>
