<svg width="127" height="127" viewBox="0 0 127 127" fill="none" xmlns="http://www.w3.org/2000/svg">
<circle cx="63.5" cy="63.5" r="62.5" fill="#89947B" stroke="#89947B" stroke-width="2"/>
<path d="M25.3487 52.1727C26.0101 48.992 27.0979 47.5274 29.1461 45.7598C30.4612 44.6249 34.9281 43.9037 37.6942 44.6158C43.8655 46.205 46.2423 54.0634 46.2423 55.9506C46.2423 58.3396 46.1208 64.0583 45.5313 65.8269C44.3522 67.3007 45.6671 59.0546 45.0632 56.2453C44.3998 53.1593 42.7051 46.2233 33.339 45.7598C28.3929 45.515 23.0038 52.8576 29.7355 60.372C36.0424 67.412 44.2055 65.6198 45.409 66.1732C45.4727 66.1822 45.5134 66.2116 45.5313 66.2673C45.5063 66.23 45.4653 66.199 45.409 66.1732C44.619 66.0613 40.2998 69.0915 32.3887 63.9088C30.6202 62.8917 27.6722 60.3717 26.4931 57.7191C25.7229 55.9864 25.0095 53.8034 25.3487 52.1727Z" fill="#F6F3F1"/>
<path d="M57.3802 30.2125C59.5434 27.3984 61.2177 26.5573 63.8753 25.969C65.5817 25.5913 69.8108 27.4593 71.8502 29.781C76.4001 34.9614 74.5292 44.2425 73.5856 46.14C72.3911 48.5422 69.4266 54.2217 68.0318 55.6577C66.2738 56.4551 71.5355 48.9271 72.4172 45.752C73.3857 42.2639 75.386 34.3062 67.5065 28.4031C63.3454 25.2856 55.007 29.54 57.0797 41.0033C59.0216 51.7431 66.9871 54.6798 67.7528 55.9349C67.8034 55.9809 67.824 56.0341 67.8116 56.1005C67.8086 56.0485 67.7885 55.9936 67.7528 55.9349C67.1245 55.3638 61.8688 55.9032 57.609 46.0997C56.5859 44.0504 55.293 39.8053 55.5981 36.4537C55.7975 34.2644 56.2711 31.6553 57.3802 30.2125Z" fill="#F6F3F1"/>
<path d="M103.185 63.141C103.215 60.6319 102.614 59.2989 101.311 57.5234C100.475 56.3833 97.0947 54.8355 94.8017 54.7363C89.686 54.5156 86.4669 59.8052 86.1416 61.2049C85.7299 62.9769 84.8396 67.246 84.9973 68.6915C85.6684 70.052 86.0579 63.6376 87.0159 61.6909C88.0682 59.5524 90.5932 54.7923 98.0215 56.5725C101.944 57.5126 104.907 64.1808 98.3305 68.2276C92.1689 72.019 86.0732 68.8385 85.0335 68.976C84.9821 68.9683 84.945 68.9808 84.9214 69.0181C84.9474 68.9961 84.9849 68.9825 85.0335 68.976C85.6727 69.0722 88.5392 72.2992 95.6393 70.2493C97.2022 69.8959 99.9494 68.6953 101.332 66.9953C102.235 65.8848 103.17 64.4274 103.185 63.141Z" fill="#F6F3F1"/>
<path d="M45.6797 66.0684C47.9261 66.2505 48.5861 68.4544 48.8761 70.3011C49.1423 71.9967 49.3555 73.7468 48.8886 75.4329C48.3543 77.3624 47.3668 79.1594 47.1468 81.1764C46.9497 82.9833 46.9506 84.2475 48.1644 85.6839C49.503 87.2679 51.1661 88.4009 52.7905 89.6607C55.982 92.1357 56.1084 96.5318 56.6923 100.23" stroke="#F6F3F1" stroke-width="2" stroke-linecap="round"/>
<path d="M68.04 55.9854C69.8945 57.4726 69.3641 60.0717 68.6918 62.0968C68.0746 63.9562 67.3842 65.8397 66.1368 67.2639C64.7093 68.8938 62.9556 70.1274 61.7566 72.0278C60.6824 73.7301 60.0511 75.0018 60.3841 77.1506C60.7514 79.5204 61.6251 81.6251 62.402 83.8346C63.9284 88.1759 61.8398 92.6695 60.4964 96.727" stroke="#F6F3F1" stroke-width="2" stroke-linecap="round"/>
<path d="M63.5675 97.7951C64.8841 96.3443 66.2774 94.9011 67.9943 94.1032C69.9591 93.19 72.0619 92.7711 73.9272 91.5183C75.5981 90.3959 76.6899 89.4883 77.2546 87.3884C77.8773 85.0726 77.9295 82.7943 78.1128 80.4593C78.4729 75.8716 82.2007 72.6069 85.0705 69.4397" stroke="#F6F3F1" stroke-width="2" stroke-linecap="round"/>
</svg>
