<svg width="172" height="43" viewBox="0 0 172 43" fill="none" xmlns="http://www.w3.org/2000/svg">
<path fill-rule="evenodd" clip-rule="evenodd" d="M100.163 0.0936278C100.095 0.143073 99.9258 0.789412 99.7867 1.52987C99.6476 2.27032 99.2966 4.14288 99.0067 5.69111C98.7168 7.23933 98.4505 8.42345 98.4149 8.32248C98.3792 8.22151 98.0188 6.81929 97.6139 5.20632C97.2089 3.59335 96.8034 2.14867 96.7126 1.99593C96.3885 1.44995 95.425 1.34579 93.5604 1.6547C92.2971 1.86411 92.2443 1.88578 92.2443 2.19408C92.2443 2.31585 93.2177 5.89697 94.4074 10.1521L96.5704 17.8886V22.6557C96.5704 26.6492 96.5958 27.4337 96.7272 27.4893C96.8132 27.5257 97.7492 27.5653 98.807 27.5772L100.73 27.5988L100.786 22.1525L100.841 16.7062L102.852 9.66876C105.466 0.526642 105.535 0.260199 105.329 0.116392C105.138 -0.016523 100.343 -0.037696 100.163 0.0936278ZM153.903 0.152987C153.753 0.288105 151.787 5.66308 150.142 10.4337C149.823 11.3593 149.53 12.1166 149.491 12.1166C149.453 12.1166 148.473 9.59692 147.314 6.51724L145.206 0.917921H143.434H141.662L141.527 2.86477C141.037 9.95956 140.611 19.9968 140.609 24.4942L140.608 27.5091L140.858 27.5829C141.182 27.679 144.914 27.679 145.239 27.5829L145.489 27.5091V21.5017C145.489 17.3469 145.524 15.5337 145.604 15.6217C145.761 15.7948 147.307 20.3447 147.7 21.7903C148.28 23.9209 148.506 24.2365 149.449 24.2304C150.17 24.2258 150.285 24.0242 151.182 21.1734C151.937 18.7739 152.953 15.8203 153.287 15.0539C153.393 14.8102 153.426 15.9559 153.449 20.6773C153.471 25.2341 153.509 26.629 153.615 26.7032C153.85 26.8677 158.181 26.8248 158.334 26.6564C158.635 26.3245 158.384 17.9561 157.679 4.77319C157.482 1.09012 157.41 0.27917 157.267 0.152987C157.147 0.0474871 156.625 0 155.583 0C154.539 0 154.02 0.0472423 153.903 0.152987ZM16.4675 0.433136C14.3966 0.789167 12.7862 1.36109 10.7693 2.45721C7.60889 4.17458 5.05538 6.69519 3.03032 10.0961C1.39405 12.8443 0.339589 16.3536 0.0581705 19.9877C-0.274052 24.277 0.835982 29.2962 2.8961 32.8204C6.07845 38.264 10.8702 41.7453 16.5374 42.7313C17.6867 42.9313 21.0558 42.93 22.1946 42.7292C24.4508 42.3314 26.2218 41.6954 28.2401 40.5583C33.382 37.6611 37.0021 32.5042 38.3259 26.1913C39.0153 22.9036 38.8916 18.8618 37.9995 15.5279C36.7409 10.825 34.0553 6.77254 30.2745 3.87167C29.2911 3.11726 27.3899 2.02457 26.2017 1.53109C25.2217 1.12415 23.0838 0.536433 21.9925 0.3739C20.8102 0.197904 17.6376 0.231928 16.4675 0.433136ZM82.1287 0.692112C82.0254 0.723688 81.89 0.925141 81.8278 1.13969C81.7657 1.35436 80.2895 7.0582 78.5474 13.8151C76.1012 23.3028 75.4088 26.1385 75.5063 26.2682C75.6042 26.3984 76.0465 26.4354 77.477 26.4328L79.3214 26.4295L79.6702 26.0962C80.0312 25.7512 80.1632 25.3407 80.899 22.2749C81.0524 21.6354 81.2431 21.0358 81.3225 20.9425C81.4442 20.7997 81.7527 20.7962 83.2783 20.9199C85.2493 21.0796 85.7713 21.2008 85.8539 21.5175C85.8835 21.6311 86.0631 22.6053 86.253 23.6824C86.6458 25.9113 86.7118 26.1393 87.0951 26.5956L87.3726 26.9257H89.3128C90.8169 26.9257 91.2656 26.8893 91.3091 26.7642C91.3399 26.6754 91.1607 25.6428 90.9108 24.4694C90.6609 23.2961 89.9343 19.7838 89.2962 16.6642C88.6582 13.5447 87.9124 9.93998 87.639 8.65379C87.1084 6.15864 87.0086 4.97807 87.3172 4.84748C87.4137 4.8066 87.658 4.77319 87.86 4.77319C88.0926 4.77319 88.252 4.7022 88.2946 4.57957C88.4036 4.26613 88.3681 1.0572 88.2534 0.856726C88.1649 0.701903 87.6906 0.670082 85.2325 0.653927C83.6286 0.643401 82.2319 0.660536 82.1287 0.692112ZM120.02 0.707166C119.679 0.736784 119.477 0.84718 119.213 1.14703L118.861 1.54749L118.892 3.74169L118.922 5.93589L120.494 5.96979L122.066 6.00369L122.111 15.6997C122.149 23.9519 122.181 25.492 122.326 26.0417C122.419 26.3969 122.532 26.7274 122.576 26.776C122.62 26.8247 123.289 26.8645 124.062 26.8645C125.198 26.8645 125.535 26.823 125.827 26.6471C126.025 26.5277 126.199 26.4175 126.214 26.4023C126.228 26.3873 126.266 21.7778 126.297 16.1593L126.354 5.9436L127.519 5.80126C128.159 5.72293 128.871 5.57251 129.099 5.46701L129.515 5.27523L129.512 4.38166C129.506 3.05386 129.316 0.954393 129.188 0.813401C129.084 0.698966 121.171 0.607296 120.02 0.707166ZM53.9695 0.856971C52.5357 1.10664 51.5842 1.70745 50.6366 2.9617C49.1209 4.96766 48.4274 8.13278 48.4296 13.0345C48.4322 18.8232 49.7775 23.0367 52.3702 25.3772C53.6842 26.5632 54.9412 27.0204 57.194 27.1317L58.6937 27.2057L59.0543 26.7526L59.4148 26.2995L59.3849 23.8282L59.3548 21.357L58.361 21.2656C55.2315 20.9783 53.4725 19.5133 52.7345 16.5796C52.5125 15.6971 52.4886 15.3145 52.4833 12.5449C52.4784 10.0286 52.5123 9.32118 52.674 8.562C53.0317 6.88196 53.6974 5.69894 54.4289 5.44266C54.8644 5.29016 55.6231 5.50875 56.1245 5.93099C56.7344 6.44454 57.0122 6.60903 57.2697 6.60903C57.3816 6.60903 57.9711 6.05766 58.5795 5.38379L59.6859 4.15855L59.4344 3.63558C58.8546 2.42967 57.8493 1.40307 56.8918 1.03909C56.3167 0.820498 54.7428 0.722342 53.9695 0.856971ZM64.7676 0.99625C64.1725 1.14605 63.7364 1.68836 63.7364 2.27865C63.7364 2.51192 63.6643 3.40267 63.5761 4.25817C63.453 5.45257 63.4047 8.22763 63.3683 16.2166C63.3423 21.9383 63.3437 26.6886 63.3715 26.7727C63.4108 26.8914 64.3749 26.9257 67.6813 26.9257H71.9407L71.9976 26.6503C72.1291 26.0145 72.45 22.6293 72.3891 22.5206C72.3508 22.4521 71.3216 22.3883 69.9431 22.3691L67.5633 22.3361L67.5079 11.627L67.4524 0.917921L66.3431 0.898461C65.733 0.887691 65.0241 0.931751 64.7676 0.99625ZM167.896 1.30626C165.982 1.43183 163.183 1.73646 163.012 1.8378C162.773 1.97891 162.609 2.74605 162.437 4.52841C162.298 5.9764 162.262 25.8603 162.397 26.5279L162.478 26.9257H166.732C170.688 26.9257 170.991 26.9106 171.044 26.7115C171.076 26.5938 171.207 25.6172 171.334 24.5414C171.554 22.6888 171.556 22.5774 171.374 22.4302C171.233 22.3165 170.563 22.2749 168.871 22.2749H166.561L166.59 19.4293L166.62 16.5838L168.556 16.5502C169.935 16.5262 170.518 16.4734 170.579 16.3666C170.68 16.1909 170.701 11.7384 170.602 11.4534C170.544 11.2869 170.257 11.2598 168.549 11.2598H166.565V8.87544V6.49104L169.255 6.45825L171.945 6.42544V3.85527V1.28509L170.225 1.27566C169.28 1.27052 168.231 1.28423 167.896 1.30626ZM133.952 2.03803C133.169 2.19053 133.092 2.2855 132.994 3.22288C132.844 4.64847 132.944 25.7414 133.101 25.8515C133.33 26.0117 137.109 25.9647 137.258 25.7997C137.36 25.6876 137.391 22.954 137.391 14.2426C137.391 1.38582 137.483 2.58425 136.469 2.27448C135.851 2.08564 134.406 1.94991 133.952 2.03803ZM14.0839 3.59849C9.68476 5.16801 5.94556 8.78279 3.95145 13.3938C3.30819 14.8811 3.01556 15.8056 2.65151 17.5017C2.27525 19.2545 2.16953 22.742 2.43997 24.4779C3.16054 29.1021 5.25349 33.1773 8.37018 36.0251C9.6913 37.2322 11.6201 38.5726 11.7808 38.3954C11.9214 38.2402 11.3696 36.6155 10.9899 36.0668C10.7726 35.7529 10.2935 35.2702 9.92514 34.9942C7.85127 33.4403 6.25349 30.984 5.59237 28.3331C5.38683 27.5087 5.34811 27.0351 5.34723 25.3346C5.34623 23.4855 5.37141 23.2245 5.64584 22.2396C6.48233 19.2374 8.14533 16.8724 10.5198 15.3079L10.936 15.0337L10.5518 15.87C9.44405 18.2804 9.54699 20.9461 10.8345 23.1955C11.2922 23.9951 12.2805 25.08 12.9375 25.5042L13.2951 25.7352L13.2429 25.0759C13.2124 24.6901 13.0415 24.0676 12.8309 23.575C12.146 21.9728 11.9927 20.3255 12.3749 18.6761C12.7813 16.9234 13.7201 15.4309 15.0368 14.4443C16.984 12.9853 18.0632 9.89518 17.5513 7.24435C17.4563 6.75247 17.2052 5.95388 16.9932 5.4697C16.6072 4.58826 15.58 3.17515 15.3361 3.19008C15.2648 3.19449 14.7012 3.37819 14.0839 3.59849ZM22.9699 3.64206C21.8275 4.90855 21.2564 6.39485 21.1714 8.32395C21.0544 10.9718 21.9529 12.9967 23.9695 14.6302C25.1306 15.5707 26.0379 17.0563 26.4211 18.6447C26.6229 19.4808 26.6174 21.315 26.4103 22.192C26.319 22.5785 26.0972 23.2421 25.9173 23.6667C25.7374 24.0911 25.5551 24.7309 25.5121 25.0881L25.434 25.7379L25.8962 25.4512C26.1505 25.2936 26.6805 24.8146 27.074 24.3867C29.1647 22.1137 29.613 18.324 28.1114 15.6181L27.7793 15.0196L28.3148 15.3627C30.02 16.4556 31.4669 18.1453 32.34 20.0635C34.757 25.3733 33.3583 31.5095 28.9521 34.9269C28.0701 35.611 27.5389 36.3137 27.2333 37.2011C27.0105 37.8484 26.9536 38.4303 27.1131 38.4303C27.2877 38.4303 29.0695 37.1955 29.8658 36.5226C30.9789 35.582 32.719 33.5477 33.5227 32.2472C38.2016 24.6768 37.3676 14.7269 31.5124 8.26202C30.8413 7.52107 29.8541 6.57451 29.3186 6.15876C28.0902 5.20485 26.2599 4.17091 24.9678 3.70118C23.3681 3.11958 23.4392 3.12166 22.9699 3.64206ZM83.5633 9.54637C83.4588 9.82885 82.3456 15.9224 82.3895 15.971C82.4476 16.0348 83.5659 16.0882 84.2337 16.0588L84.8199 16.033L84.7493 15.3905C84.7103 15.0371 84.4626 13.674 84.1989 12.3613C83.935 11.0487 83.6994 9.83705 83.6751 9.66876C83.6442 9.4536 83.611 9.41725 83.5633 9.54637ZM8.1105 19.8577C7.14489 21.0673 6.50518 22.956 6.50052 24.6113C6.49952 24.9876 6.59503 25.7114 6.71294 26.22C7.14589 28.0875 8.06835 29.5719 9.40944 30.5588C10.2029 31.1427 11.4153 31.7001 11.5554 31.5454C11.7063 31.3791 10.9457 29.8702 10.4799 29.4116C8.34888 27.3138 7.60789 25.7509 7.60789 23.3539C7.60789 22.1109 7.81599 21.1417 8.31904 20.0413C8.5268 19.587 8.68033 19.2151 8.66014 19.2151C8.63995 19.2151 8.39258 19.5043 8.1105 19.8577ZM30.5196 20.1438C30.9149 21.0308 31.2367 22.5072 31.2332 23.4177C31.23 24.2655 30.9262 25.581 30.5086 26.555C30.1776 27.3274 29.9275 27.6751 28.9628 28.704C27.4838 30.2813 26.758 31.7271 27.5468 31.5247C28.3637 31.3152 29.5359 30.5354 30.3047 29.6902C31.5922 28.2744 32.2334 26.5748 32.2334 24.5778C32.2334 22.7728 31.6734 21.096 30.6774 19.9192L30.1332 19.2763L30.5196 20.1438ZM56.784 35.7842C55.371 36.2938 54.5295 37.624 54.5295 39.3482C54.5295 41.756 56.3116 43.3364 58.5783 42.9389C59.7037 42.7416 60.5149 42.0672 60.984 40.9393C61.3346 40.0959 61.3451 38.4989 61.0053 37.6959C60.6992 36.9727 60.0481 36.2544 59.418 35.945C58.7803 35.632 57.4341 35.5498 56.784 35.7842ZM127.264 35.7837C125.878 36.3557 125.078 37.6708 125.078 39.3768C125.078 40.6667 125.805 42.064 126.754 42.598C127.616 43.0832 129.171 43.1015 130.034 42.6366C130.444 42.4155 130.459 42.3848 130.491 41.7085L130.525 41.0089L129.959 41.4286C128.201 42.7341 126.188 41.6058 126.188 39.3149C126.188 37.7112 127.068 36.6862 128.445 36.6862C129.115 36.6862 129.942 37.0016 130.124 37.3271C130.297 37.6357 130.412 37.4042 130.381 36.809C130.349 36.1923 130.33 36.1576 129.904 35.9368C129.315 35.6317 127.84 35.5462 127.264 35.7837ZM150.195 35.8297C148.639 36.4456 147.857 38.0627 148.156 40.043C148.36 41.3922 149.059 42.3492 150.155 42.7798C150.879 43.0638 152.067 43.0355 152.838 42.716L153.475 42.4515V41.7202V40.9889L153.053 41.3638C152.279 42.0495 151.34 42.1622 150.404 41.6817C148.996 40.9584 148.697 38.6651 149.84 37.3617C150.615 36.4789 151.928 36.4366 153.059 37.2578L153.364 37.4793V36.8054V36.1314L152.893 35.922C152.176 35.6035 150.879 35.5591 150.195 35.8297ZM50.2034 39.287V42.8363H50.7026H51.2018V39.7766V36.7168H52.5883H53.9749V36.2273V35.7377H52.0892H50.2034V39.287ZM62.738 39.287V42.8363H63.2372H63.7364V41.1807V39.5253L65.3725 39.5591L67.0087 39.593L67.0396 41.2146L67.0706 42.8363H67.5665H68.0625V39.287V35.7377H67.5633H67.0641V37.1452V38.5527H65.4003H63.7364V37.1452V35.7377H63.2372H62.738V39.287ZM69.5052 36.931C69.5055 37.5874 69.5581 38.3324 69.6221 38.5866C69.7996 39.2917 70.3203 39.866 70.9772 40.0812C71.6622 40.3056 72.0137 40.3092 72.9155 40.1008L73.6088 39.9404V41.3883V42.8363H74.1079H74.6071V39.287V35.7377H74.1112H73.6152L73.5843 37.3507L73.5533 38.9638L73.2205 39.068C72.6009 39.2622 71.5438 39.2236 71.2282 38.9955C70.6659 38.5889 70.5037 38.1133 70.5033 36.8698L70.5028 35.7377H70.0037H69.5045L69.5052 36.931ZM78.3 35.9519C78.2607 36.0696 77.6882 37.6256 77.0279 39.4094C76.3676 41.1932 75.8274 42.697 75.8274 42.7512C75.8273 42.8053 76.0589 42.8329 76.3421 42.8124L76.8569 42.7751L77.1463 41.9457L77.4357 41.1162L78.8098 41.1501L80.1838 41.184L80.4728 42.0102L80.7618 42.8363H81.3014C81.7691 42.8363 81.8314 42.8078 81.7682 42.6221C81.7282 42.5044 81.14 40.9072 80.4611 39.0728L79.2268 35.7377H78.7992C78.4932 35.7377 78.3513 35.7987 78.3 35.9519ZM83.0375 39.2718V42.8363H83.5366H84.0358V41.4426V40.0491L85.1728 39.9989C86.4737 39.9414 87.0454 39.7124 87.3734 39.1172C87.8134 38.319 87.7403 37.1345 87.2113 36.491C86.7364 35.9133 86.4066 35.8186 84.6736 35.7613L83.0375 35.7074V39.2718ZM88.9165 39.287V42.8363H89.4125H89.9084L89.9394 41.2146L89.9703 39.593L91.6065 39.5591L93.2426 39.5253V41.1807V42.8363H93.7418H94.241V39.287V35.7377H93.7418H93.2426V37.1452V38.5527H91.5788H89.9149V37.1452V35.7377H89.4157H88.9165V39.287ZM97.8401 36.1967C97.7436 36.4492 97.2476 37.7847 96.7378 39.1646C96.228 40.5446 95.7091 41.9351 95.5845 42.2549L95.3581 42.8363H95.899H96.4399L96.7458 41.976L97.0516 41.1159L98.4328 41.1499L99.8139 41.184L100.091 42.0102L100.367 42.8363H100.918C101.222 42.8363 101.453 42.7888 101.433 42.7308C101.412 42.6728 100.823 41.0756 100.123 39.1815L98.8498 35.7377H98.4326C98.0557 35.7377 97.9985 35.782 97.8401 36.1967ZM103.635 35.9151C103.082 36.1325 102.797 36.4228 102.547 37.0228C102.31 37.5937 102.296 37.8273 102.462 38.4857C102.621 39.1184 103.177 39.7197 103.765 39.8943L104.235 40.0341L103.809 40.6091C103.574 40.9253 103.118 41.5559 102.795 42.0102L102.209 42.8363L102.8 42.832L103.392 42.8279L104.335 41.427C105.244 40.077 105.293 40.026 105.694 40.0237L106.11 40.0213V41.4288V42.8363H106.609H107.108V39.287V35.7377L105.583 35.7431C104.59 35.7465 103.91 35.8065 103.635 35.9151ZM110.991 39.287V42.8363H111.488H111.984L112.015 40.4191L112.045 38.0019L113.029 39.44C113.754 40.4991 114.075 40.8767 114.249 40.873C114.42 40.8694 114.743 40.4753 115.428 39.435L116.371 38.0019L116.401 40.4191L116.431 42.8363H116.928H117.424V39.287V35.7377L117.064 35.7421C116.728 35.7463 116.622 35.8715 115.505 37.578C114.846 38.5852 114.272 39.4094 114.229 39.4094C114.187 39.4094 113.606 38.5833 112.939 37.5736C111.798 35.8452 111.705 35.7377 111.359 35.7377H110.991V39.287ZM121.009 36.1967C120.912 36.4492 120.319 38.0463 119.691 39.746L118.549 42.8363H119.079H119.608L119.913 41.9796L120.217 41.1228H121.584H122.951L123.248 41.9796L123.545 42.8363H124.088H124.631L124.439 42.3043C124.333 42.0116 123.747 40.4156 123.137 38.7574L122.028 35.7426L121.606 35.7402C121.224 35.738 121.168 35.7801 121.009 36.1967ZM131.29 36.2273V36.7168H132.178H133.065V39.7766V42.8363H133.564H134.063V39.7766V36.7168H134.951H135.838V36.2273V35.7377H133.564H131.29V36.2273ZM137.169 39.287V42.8363H139.11H141.052V42.3467V41.8572H139.61H138.168V40.6945V39.5318H139.499H140.83V39.1034V38.6751H139.499H138.168V37.6959V36.7168H139.554H140.941V36.2273V35.7377H139.055H137.169V39.287ZM142.383 39.287V42.8363H142.882H143.381V41.4424V40.0484L144.574 39.9992C145.961 39.9418 146.466 39.7356 146.836 39.0748C147.161 38.4934 147.18 37.4282 146.874 36.8518C146.391 35.9419 145.853 35.7513 143.742 35.7431L142.383 35.7377V39.287ZM154.807 39.287V42.8363H155.303H155.799L155.829 41.1632L155.86 39.49L157.173 41.1632L158.486 42.8363H159.093C159.473 42.8363 159.674 42.7902 159.631 42.7128C159.593 42.6449 158.941 41.8064 158.183 40.8495C157.424 39.8927 156.804 39.0809 156.804 39.0454C156.805 39.01 157.416 38.265 158.163 37.39L159.521 35.7989L158.923 35.7613L158.325 35.7238L157.593 36.6181C157.19 37.1099 156.624 37.7877 156.335 38.1243L155.81 38.7362L155.807 37.237L155.805 35.7377H155.306H154.807V39.287ZM161.739 38.7517C161.129 40.4127 160.544 42.0114 160.438 42.304L160.246 42.8363H160.783H161.321L161.594 42.0102L161.869 41.184L163.26 41.1499L164.651 41.1157L164.929 41.9454L165.206 42.7751L165.77 42.8119L166.334 42.8488L165.277 39.997C164.695 38.4284 164.108 36.8423 163.972 36.472C163.735 35.829 163.704 35.7974 163.286 35.7652L162.849 35.7315L161.739 38.7517ZM168.523 35.9163C167.455 36.3366 166.95 37.5749 167.382 38.7153C167.568 39.2078 168.152 39.7657 168.579 39.86C168.755 39.8988 168.923 39.9742 168.953 40.0276C168.983 40.0808 168.718 40.5282 168.364 41.0214C168.011 41.5147 167.58 42.125 167.407 42.3773L167.093 42.8363H167.655H168.218L169.193 41.4288C170.131 40.0745 170.184 40.0213 170.585 40.0213H171.002V41.4288V42.8363H171.501H172V39.287V35.7377L170.475 35.7431C169.476 35.7466 168.802 35.8064 168.523 35.9163ZM57.2992 36.7608C56.6686 36.9481 56.3559 37.1883 56.0094 37.7509C54.9017 39.5494 55.9945 41.9742 57.9128 41.9742C59.2585 41.9742 60.2237 40.8712 60.2237 39.3333C60.2237 37.5277 58.8336 36.3049 57.2992 36.7608ZM84.0358 37.8674V39.0422H85.0391C85.9566 39.0422 86.0658 39.0165 86.3148 38.7418C86.7048 38.3116 86.698 37.4864 86.301 37.0747C86.0509 36.8153 85.8904 36.7726 85.0254 36.7353L84.0358 36.6925V37.8674ZM104.039 36.8953C103.619 37.0968 103.448 37.4098 103.448 37.9772C103.448 38.635 103.861 39.006 104.703 39.1055C105.081 39.1502 105.539 39.1679 105.722 39.145L106.055 39.1034L106.086 37.9101L106.118 36.7168L105.254 36.7216C104.774 36.7243 104.235 36.8014 104.039 36.8953ZM143.381 37.8677V39.0422H144.42C145.394 39.0422 145.477 39.0223 145.751 38.7196C146.141 38.2897 146.151 37.6033 145.776 37.1214C145.523 36.7966 145.451 36.7757 144.445 36.7355L143.381 36.6932V37.8677ZM169.005 36.8032C168.401 37.047 168.107 37.8164 168.389 38.4177C168.641 38.9559 168.943 39.0825 170.003 39.0935L170.946 39.1034L170.978 37.9101L171.01 36.7168L170.091 36.7265C169.585 36.7318 169.097 36.7664 169.005 36.8032ZM78.2744 38.6842C78.0154 39.4297 77.8268 40.0653 77.8552 40.0966C77.8836 40.1281 78.3313 40.1377 78.85 40.1181L79.793 40.0825L79.3353 38.7063C79.0836 37.9493 78.8479 37.3296 78.8115 37.3294C78.775 37.329 78.5333 37.9388 78.2744 38.6842ZM97.9161 38.6163C97.664 39.3339 97.4578 39.971 97.4578 40.0324C97.4578 40.0935 97.9059 40.1437 98.4534 40.1437C99.4402 40.1437 99.4482 40.1413 99.3536 39.8684C99.301 39.7168 99.0963 39.1248 98.8986 38.5527C98.701 37.9805 98.5021 37.4672 98.4567 37.4121C98.4113 37.3569 98.1681 37.8989 97.9161 38.6163ZM121.458 37.5255C121.416 37.6529 121.194 38.2941 120.964 38.9504L120.547 40.1437H121.582H122.617L122.149 38.8003C121.629 37.306 121.567 37.1921 121.458 37.5255ZM163.188 37.4512C163.152 37.5521 162.93 38.1855 162.693 38.8586L162.263 40.0825L163.207 40.1181C163.727 40.1377 164.178 40.1252 164.209 40.0906C164.263 40.0317 163.551 37.8582 163.345 37.4512C163.262 37.288 163.245 37.288 163.188 37.4512Z" fill="#F6F3F1"/>
</svg>
